<svg xmlns="http://www.w3.org/2000/svg" viewBox="0 0 900 560">
  <rect width="900" height="560" fill="white"/>
  <text x="450" y="34" text-anchor="middle" font-family="sans-serif" font-size="24">Flussdichtehub über einer Netzperiode</text>
  <g stroke="#d8d8d8" stroke-width="1">
    <line x1="95" y1="470" x2="850" y2="470"/><line x1="95" y1="390" x2="850" y2="390"/>
    <line x1="95" y1="310" x2="850" y2="310"/><line x1="95" y1="230" x2="850" y2="230"/>
    <line x1="95" y1="150" x2="850" y2="150"/><line x1="95" y1="70" x2="850" y2="70"/>
    <line x1="95" y1="70" x2="95" y2="470"/><line x1="199.9" y1="70" x2="199.9" y2="470"/>
    <line x1="304.7" y1="70" x2="304.7" y2="470"/><line x1="409.6" y1="70" x2="409.6" y2="470"/>
    <line x1="514.4" y1="70" x2="514.4" y2="470"/><line x1="619.3" y1="70" x2="619.3" y2="470"/>
    <line x1="724.2" y1="70" x2="724.2" y2="470"/><line x1="829" y1="70" x2="829" y2="470"/>
  </g>
  <g stroke="black" stroke-width="2" fill="none"><path d="M95 70V470H850"/></g>
  <path d="M95 82 C150 84 196 195 241 345 C277 463 337 467 378 348 C421 220 450 85 472 82 C527 84 573 195 618 345 C654 463 714 467 755 348 C798 220 827 85 850 82" fill="none" stroke="#1f77b4" stroke-width="4"/>
  <g font-family="sans-serif" font-size="16" fill="black">
    <text x="78" y="476" text-anchor="end">20</text><text x="78" y="396" text-anchor="end">40</text>
    <text x="78" y="316" text-anchor="end">60</text><text x="78" y="236" text-anchor="end">80</text>
    <text x="78" y="156" text-anchor="end">100</text><text x="78" y="76" text-anchor="end">120</text>
    <text x="95" y="500" text-anchor="middle">0</text><text x="200" y="500" text-anchor="middle">50</text>
    <text x="305" y="500" text-anchor="middle">100</text><text x="410" y="500" text-anchor="middle">150</text>
    <text x="514" y="500" text-anchor="middle">200</text><text x="619" y="500" text-anchor="middle">250</text>
    <text x="724" y="500" text-anchor="middle">300</text><text x="829" y="500" text-anchor="middle">350</text>
    <text x="472" y="540" text-anchor="middle" font-size="18">Netzwinkel [°]</text>
    <text transform="translate(28 270) rotate(-90)" text-anchor="middle" font-size="18">ΔBpp [mT]</text>
  </g>
</svg>