<svg xmlns="http://www.w3.org/2000/svg" viewBox="0 0 720 420"><rect width="100%" height="100%" fill="white"/><text x="360" y="22" text-anchor="middle" font-family="sans-serif" font-size="16">Differentielle relative Permeabilität</text><g stroke="#d9d9d9"><path d="M65 350H705M65 287H705M65 224H705M65 161H705M65 98H705M65 35H705"/><path d="M65 35V350M193 35V350M321 35V350M449 35V350M577 35V350M705 35V350"/></g><path d="M65 35V350H705" fill="none" stroke="black"/><polyline points="65.0,161.4 92.8,120.0 120.7,67.1 148.5,53.9 176.3,55.4 204.1,64.4 232.0,77.5 259.8,92.7 287.6,108.9 315.4,125.4 343.3,141.7 371.1,157.6 398.9,172.9 426.7,187.6 454.6,201.6 482.4,214.8 510.2,227.3 538.0,239.1 565.9,250.3 593.7,260.8 621.5,270.7 649.3,280.1 677.2,288.9 705.0,293.1" fill="none" stroke="#1677b8" stroke-width="2"/><text x="585" y="48" font-family="sans-serif" font-size="11" fill="#1677b8">µr,diff</text><path d="M355.3 35V350" stroke="#666" stroke-dasharray="4 4"/><text x="359.3" y="50" font-family="sans-serif" font-size="10">20 kW</text><path d="M645.6 35V350" stroke="#666" stroke-dasharray="4 4"/><text x="649.6" y="50" font-family="sans-serif" font-size="10">40 kW</text><g font-family="sans-serif" font-size="10" text-anchor="middle"><text x="65" y="366">0</text><text x="193" y="366">20</text><text x="321" y="366">40</text><text x="449" y="366">60</text><text x="577" y="366">80</text><text x="705" y="366">100</text></g><g font-family="sans-serif" font-size="10" text-anchor="end"><text x="58" y="354">0</text><text x="58" y="291">10</text><text x="58" y="228">20</text><text x="58" y="165">30</text><text x="58" y="102">40</text><text x="58" y="39">50</text></g><text x="360" y="405" text-anchor="middle" font-family="sans-serif" font-size="12">Strom I [A]</text><text transform="translate(16 200) rotate(-90)" text-anchor="middle" font-family="sans-serif" font-size="12">Differentielle relative Permeabilität µr,diff [−]</text></svg>