<svg xmlns="http://www.w3.org/2000/svg" viewBox="0 0 720 420"><rect width="100%" height="100%" fill="white"/><text x="360" y="22" text-anchor="middle" font-family="sans-serif" font-size="16">B(H)-Kennlinie</text><g stroke="#d9d9d9" stroke-width="1"><path d="M65 350H705M65 287H705M65 224H705M65 161H705M65 98H705M65 35H705"/><path d="M65 35V350M193 35V350M321 35V350M449 35V350M577 35V350M705 35V350"/></g><path d="M65 35V350H705" fill="none" stroke="black"/><polyline points="65.0,348.5 92.8,334.1 120.7,316.2 148.5,297.5 176.3,278.7 204.1,260.3 232.0,242.4 259.8,225.3 287.6,209.0 315.4,193.4 343.3,178.6 371.1,164.5 398.9,151.1 426.7,138.4 454.6,126.3 482.4,114.8 510.2,103.8 538.0,93.4 565.9,83.5 593.7,74.0 621.5,65.0 649.3,56.4 677.2,48.1 705.0,40.2" fill="none" stroke="#1677b8" stroke-width="2"/><circle cx="334.1" cy="183.4" r="4" fill="red"/><text x="339.1" y="178.4" font-family="sans-serif" font-size="10">20 kW</text><circle cx="604.6" cy="70.4" r="4" fill="red"/><text x="609.6" y="65.4" font-family="sans-serif" font-size="10">40 kW</text><text x="590" y="48" font-family="sans-serif" font-size="11" fill="#1677b8">Magnetics-Fit</text><g font-family="sans-serif" font-size="10" fill="black" text-anchor="middle"><text x="65" y="366">0</text><text x="193" y="366">40</text><text x="321" y="366">80</text><text x="449" y="366">120</text><text x="577" y="366">160</text><text x="705" y="366">200</text></g><g font-family="sans-serif" font-size="10" fill="black" text-anchor="end"><text x="58" y="354">0,0</text><text x="58" y="291">0,2</text><text x="58" y="228">0,4</text><text x="58" y="165">0,6</text><text x="58" y="102">0,8</text><text x="58" y="39">1,0</text></g><text x="360" y="405" text-anchor="middle" font-family="sans-serif" font-size="12">Magnetische Feldstärke H [Oe]</text><text transform="translate(16 200) rotate(-90)" text-anchor="middle" font-family="sans-serif" font-size="12">Flussdichte B [T]</text></svg>