<svg xmlns="http://www.w3.org/2000/svg" viewBox="0 0 900 560"><rect width="900" height="560" fill="white"/><text x="450" y="34" text-anchor="middle" font-family="sans-serif" font-size="24">Differentielle und Sekanteninduktivität</text><g stroke="#ddd"><line x1="95" y1="470" x2="850" y2="470"/><line x1="95" y1="408" x2="850" y2="408"/><line x1="95" y1="347" x2="850" y2="347"/><line x1="95" y1="285" x2="850" y2="285"/><line x1="95" y1="224" x2="850" y2="224"/><line x1="95" y1="162" x2="850" y2="162"/><line x1="95" y1="101" x2="850" y2="101"/></g><g stroke="#eee"><line x1="95" y1="70" x2="95" y2="470"/><line x1="263" y1="70" x2="263" y2="470"/><line x1="431" y1="70" x2="431" y2="470"/><line x1="598" y1="70" x2="598" y2="470"/><line x1="766" y1="70" x2="766" y2="470"/><line x1="850" y1="70" x2="850" y2="470"/></g><path d="M95 70V470H850" fill="none" stroke="black" stroke-width="2"/><g font-family="sans-serif" font-size="15"><text x="82" y="476" text-anchor="end">0</text><text x="82" y="414" text-anchor="end">100</text><text x="82" y="353" text-anchor="end">200</text><text x="82" y="291" text-anchor="end">300</text><text x="82" y="230" text-anchor="end">400</text><text x="82" y="168" text-anchor="end">500</text><text x="82" y="107" text-anchor="end">600</text><text x="95" y="500" text-anchor="middle">0</text><text x="263" y="500" text-anchor="middle">20</text><text x="431" y="500" text-anchor="middle">40</text><text x="598" y="500" text-anchor="middle">60</text><text x="766" y="500" text-anchor="middle">80</text><text x="850" y="500" text-anchor="middle">90</text></g><path d="M95 111 C260 125 400 170 520 245 C650 330 760 395 850 430" fill="none" stroke="#1f77b4" stroke-width="4"/><path d="M95 111 C280 117 430 135 580 175 C700 210 790 242 850 260" fill="none" stroke="#ff7f0e" stroke-width="4"/><line x1="438" y1="70" x2="438" y2="470" stroke="#777" stroke-dasharray="5 5"/><text x="445" y="92" font-family="sans-serif" font-size="15">20 kW, Ipk=40,8 A</text><line x1="780" y1="70" x2="780" y2="470" stroke="#777" stroke-dasharray="5 5"/><text x="660" y="116" font-family="sans-serif" font-size="15">40 kW, Ipk=81,6 A</text><circle cx="438" cy="190" r="6" fill="#1f77b4"/><circle cx="438" cy="139" r="6" fill="#ff7f0e"/><circle cx="780" cy="400" r="6" fill="#1f77b4"/><circle cx="780" cy="237" r="6" fill="#ff7f0e"/><text x="452" y="207" font-family="sans-serif" font-size="14">Ldiff≈455 µH</text><text x="452" y="134" font-family="sans-serif" font-size="14">Lsec≈538 µH</text><text x="620" y="420" font-family="sans-serif" font-size="14">Ldiff≈238 µH</text><text x="620" y="254" font-family="sans-serif" font-size="14">Lsec≈441 µH</text><line x1="620" y1="145" x2="665" y2="145" stroke="#1f77b4" stroke-width="4"/><text x="675" y="151" font-family="sans-serif" font-size="16">Ldiff</text><line x1="620" y1="173" x2="665" y2="173" stroke="#ff7f0e" stroke-width="4"/><text x="675" y="179" font-family="sans-serif" font-size="16">Lsec</text><text x="472" y="540" text-anchor="middle" font-family="sans-serif" font-size="18">Momentaner Strom I [A]</text><text transform="translate(28 270) rotate(-90)" text-anchor="middle" font-family="sans-serif" font-size="18">Induktivität L [µH]</text></svg>