<svg xmlns="http://www.w3.org/2000/svg" viewBox="0 0 900 560"><rect width="900" height="560" fill="white"/><text x="450" y="34" text-anchor="middle" font-family="sans-serif" font-size="24">Temperaturabschätzung</text><g stroke="#ddd"><line x1="95" y1="470" x2="850" y2="470"/><line x1="95" y1="396" x2="850" y2="396"/><line x1="95" y1="322" x2="850" y2="322"/><line x1="95" y1="247" x2="850" y2="247"/><line x1="95" y1="173" x2="850" y2="173"/><line x1="95" y1="99" x2="850" y2="99"/></g><g stroke="#eee"><line x1="95" y1="70" x2="95" y2="470"/><line x1="263" y1="70" x2="263" y2="470"/><line x1="431" y1="70" x2="431" y2="470"/><line x1="598" y1="70" x2="598" y2="470"/><line x1="766" y1="70" x2="766" y2="470"/><line x1="850" y1="70" x2="850" y2="470"/></g><path d="M95 70V470H850" fill="none" stroke="black" stroke-width="2"/><g font-family="sans-serif" font-size="15"><text x="82" y="476" text-anchor="end">0</text><text x="82" y="402" text-anchor="end">80</text><text x="82" y="328" text-anchor="end">160</text><text x="82" y="253" text-anchor="end">240</text><text x="82" y="179" text-anchor="end">320</text><text x="82" y="105" text-anchor="end">400</text><text x="95" y="500" text-anchor="middle">0</text><text x="263" y="500" text-anchor="middle">20</text><text x="431" y="500" text-anchor="middle">40</text><text x="598" y="500" text-anchor="middle">60</text><text x="766" y="500" text-anchor="middle">80</text><text x="850" y="500" text-anchor="middle">90</text></g><path d="M95 465 C300 454 490 418 650 345 C750 295 820 246 850 230" fill="none" stroke="#1f77b4" stroke-width="4"/><path d="M95 465 C300 450 490 398 650 300 C750 232 820 164 850 145" fill="none" stroke="#d62728" stroke-width="4"/><line x1="337" y1="70" x2="337" y2="470" stroke="#777" stroke-dasharray="5 5"/><text x="344" y="92" font-family="sans-serif" font-size="15">20 kW, IRMS=28,9 A</text><line x1="579" y1="70" x2="579" y2="470" stroke="#777" stroke-dasharray="5 5"/><text x="586" y="116" font-family="sans-serif" font-size="15">40 kW, IRMS=57,7 A</text><circle cx="337" cy="438" r="6" fill="#1f77b4"/><circle cx="337" cy="430" r="6" fill="#d62728"/><circle cx="579" cy="370" r="6" fill="#1f77b4"/><circle cx="579" cy="337" r="6" fill="#d62728"/><text x="350" y="452" font-family="sans-serif" font-size="14">20-kW-Arbeitspunkt</text><text x="592" y="384" font-family="sans-serif" font-size="14">40-kW-Arbeitspunkt</text><line x1="650" y1="145" x2="695" y2="145" stroke="#1f77b4" stroke-width="4"/><text x="705" y="151" font-family="sans-serif" font-size="16">Verlustkurve 25 °C</text><line x1="650" y1="173" x2="695" y2="173" stroke="#d62728" stroke-width="4"/><text x="705" y="179" font-family="sans-serif" font-size="16">Verlustkurve 120 °C</text><text x="472" y="540" text-anchor="middle" font-family="sans-serif" font-size="18">Effektivstrom I_RMS [A]</text><text transform="translate(28 270) rotate(-90)" text-anchor="middle" font-family="sans-serif" font-size="18">Temperaturerhöhung ΔT [K]</text><text x="472" y="522" text-anchor="middle" font-family="sans-serif" font-size="13">Vorabschätzung mit Rth=0,65 K/W; keine thermische Freigabe</text></svg>