<svg xmlns="http://www.w3.org/2000/svg" viewBox="0 0 720 400"><rect width="100%" height="100%" fill="white"/><g font-family="Arial" fill="#111"><text x="360" y="28" text-anchor="middle" font-size="20" font-weight="700">Abbildung 6: DC-Kupferverluste</text><path d="M65 45V340H695" fill="none" stroke="#111" stroke-width="2"/><text x="360" y="390" text-anchor="middle">I RMS [A]</text><text x="18" y="195" transform="rotate(-90 18 195)" text-anchor="middle">P [W]</text><polyline points="65,340 96,339 128,338 160,335 191,332 222,327 254,322 286,315 317,308 348,299 380,289 412,279 443,267 474,254 506,240 538,226 569,210 600,193 632,175 664,157 695,137" fill="none" stroke="#1769aa" stroke-width="3"/><text x="520" y="65" fill="#1769aa">25 °C</text><polyline points="65,340 96,339 128,337 160,334 191,329 222,323 254,315 286,306 317,295 348,284 380,270 412,256 443,240 474,222 506,203 538,183 569,161 600,138 632,114 664,88 695,61" fill="none" stroke="#d1495b" stroke-width="3"/><text x="520" y="87" fill="#d1495b">120 °C</text><text x="65" y="360" font-size="11">0</text><text x="680" y="360" font-size="11">90</text><text x="30" y="340" font-size="11">0</text><text x="25" y="52" font-size="11">600</text></g></svg>