<svg xmlns="http://www.w3.org/2000/svg" viewBox="0 0 900 560"><rect width="900" height="560" fill="white"/><text x="450" y="34" text-anchor="middle" font-family="sans-serif" font-size="24">Stromwelligkeit über der Netzperiode</text><g stroke="#ddd"><line x1="95" y1="470" x2="850" y2="470"/><line x1="95" y1="403" x2="850" y2="403"/><line x1="95" y1="337" x2="850" y2="337"/><line x1="95" y1="270" x2="850" y2="270"/><line x1="95" y1="203" x2="850" y2="203"/><line x1="95" y1="137" x2="850" y2="137"/><line x1="95" y1="70" x2="850" y2="70"/></g><g stroke="#eee"><line x1="95" y1="70" x2="95" y2="470"/><line x1="221" y1="70" x2="221" y2="470"/><line x1="347" y1="70" x2="347" y2="470"/><line x1="473" y1="70" x2="473" y2="470"/><line x1="598" y1="70" x2="598" y2="470"/><line x1="724" y1="70" x2="724" y2="470"/><line x1="850" y1="70" x2="850" y2="470"/></g><path d="M95 70V470H850" fill="none" stroke="black" stroke-width="2"/><g font-family="sans-serif" font-size="15"><text x="82" y="476" text-anchor="end">0</text><text x="82" y="409" text-anchor="end">2</text><text x="82" y="343" text-anchor="end">4</text><text x="82" y="276" text-anchor="end">6</text><text x="82" y="209" text-anchor="end">8</text><text x="82" y="143" text-anchor="end">10</text><text x="82" y="76" text-anchor="end">12</text><text x="95" y="500" text-anchor="middle">0</text><text x="221" y="500" text-anchor="middle">60</text><text x="347" y="500" text-anchor="middle">120</text><text x="473" y="500" text-anchor="middle">180</text><text x="598" y="500" text-anchor="middle">240</text><text x="724" y="500" text-anchor="middle">300</text><text x="850" y="500" text-anchor="middle">360</text></g><path d="M95 274 C150 300 205 390 284 420 C363 390 418 300 473 274 C528 300 583 390 661 420 C740 390 795 300 850 274" fill="none" stroke="#1f77b4" stroke-width="4"/><path d="M95 95 C150 140 205 315 284 375 C363 315 418 140 473 95 C528 140 583 315 661 375 C740 315 795 140 850 95" fill="none" stroke="#ff7f0e" stroke-width="4"/><circle cx="95" cy="274" r="6" fill="#1f77b4"/><circle cx="95" cy="95" r="6" fill="#ff7f0e"/><text x="108" y="265" font-family="sans-serif" font-size="14">20 kW: max. ≈5,9 A</text><text x="108" y="88" font-family="sans-serif" font-size="14">40 kW: max. ≈11,3 A</text><line x1="620" y1="145" x2="665" y2="145" stroke="#1f77b4" stroke-width="4"/><text x="675" y="151" font-family="sans-serif" font-size="16">20 kW, Ldiff≈455 µH</text><line x1="620" y1="173" x2="665" y2="173" stroke="#ff7f0e" stroke-width="4"/><text x="675" y="179" font-family="sans-serif" font-size="16">40 kW, Ldiff≈238 µH</text><text x="472" y="540" text-anchor="middle" font-family="sans-serif" font-size="18">Elektrischer Winkel [°]</text><text transform="translate(28 270) rotate(-90)" text-anchor="middle" font-family="sans-serif" font-size="18">Stromwelligkeit ΔIpp [A]</text></svg>