<svg xmlns="http://www.w3.org/2000/svg" viewBox="0 0 720 400"><rect width="100%" height="100%" fill="white"/><g font-family="Arial" fill="#111"><text x="360" y="28" text-anchor="middle" font-size="20" font-weight="700">Abbildung 10: Temperaturabschätzung</text><path d="M65 45V340H695" fill="none" stroke="#111" stroke-width="2"/><text x="360" y="390" text-anchor="middle">I RMS [A]</text><text x="18" y="195" transform="rotate(-90 18 195)" text-anchor="middle">ΔT [K]</text><polyline points="65,336 96,336 128,334 160,332 191,329 222,325 254,319 286,313 317,306 348,298 380,290 412,280 443,269 474,258 506,245 538,232 569,217 600,202 632,186 664,169 695,151" fill="none" stroke="#1769aa" stroke-width="3"/><text x="520" y="65" fill="#1769aa">25 °C</text><polyline points="65,336 96,336 128,334 160,330 191,326 222,320 254,313 286,305 317,295 348,284 380,272 412,259 443,244 474,229 506,211 538,193 569,173 600,152 632,130 664,107 695,82" fill="none" stroke="#d1495b" stroke-width="3"/><text x="520" y="87" fill="#d1495b">120 °C</text><text x="65" y="360" font-size="11">0</text><text x="680" y="360" font-size="11">90</text><text x="30" y="340" font-size="11">0</text><text x="25" y="52" font-size="11">430</text></g></svg>