<svg xmlns="http://www.w3.org/2000/svg" viewBox="0 0 900 560"><rect width="900" height="560" fill="white"/><text x="450" y="34" text-anchor="middle" font-family="sans-serif" font-size="24">Differentielle relative Permeabilität</text><g stroke="#d8d8d8"><line x1="100" y1="470" x2="850" y2="470"/><line x1="100" y1="390" x2="850" y2="390"/><line x1="100" y1="310" x2="850" y2="310"/><line x1="100" y1="230" x2="850" y2="230"/><line x1="100" y1="150" x2="850" y2="150"/><line x1="100" y1="70" x2="850" y2="70"/></g><path d="M100 245 C170 120 245 90 325 135 C430 195 535 295 650 365 C730 410 790 430 850 442" fill="none" stroke="#1f77b4" stroke-width="4"/><line x1="440" y1="70" x2="440" y2="470" stroke="#666" stroke-dasharray="6 6"/><line x1="780" y1="70" x2="780" y2="470" stroke="#666" stroke-dasharray="6 6"/><g font-family="sans-serif" font-size="16"><text x="448" y="90">20 kW</text><text x="788" y="90">40 kW</text><text x="82" y="476" text-anchor="end">10</text><text x="82" y="396" text-anchor="end">20</text><text x="82" y="316" text-anchor="end">30</text><text x="82" y="236" text-anchor="end">40</text><text x="82" y="156" text-anchor="end">50</text><text x="82" y="76" text-anchor="end">60</text><text x="100" y="500" text-anchor="middle">0</text><text x="267" y="500" text-anchor="middle">20</text><text x="433" y="500" text-anchor="middle">40</text><text x="600" y="500" text-anchor="middle">60</text><text x="767" y="500" text-anchor="middle">80</text><text x="850" y="500" text-anchor="middle">90</text><text x="475" y="540" text-anchor="middle" font-size="18">Strom I [A]</text><text transform="translate(30 270) rotate(-90)" text-anchor="middle" font-size="18">Differentielle relative Permeabilität µr,diff</text></g></svg>