<svg xmlns="http://www.w3.org/2000/svg" width="900" height="520" viewBox="0 0 900 520">
<style>text{font-family:Arial,Helvetica,sans-serif;fill:#222}.grid{stroke:#d9d9d9;stroke-width:1}.axis{stroke:#222;stroke-width:1.5}.curve{fill:none;stroke:#1f77b4;stroke-width:3}.mark{fill:#1f77b4}</style>
<rect width="100%" height="100%" fill="white"/>
<text x="450" y="27" text-anchor="middle" font-size="20" font-weight="bold">Stromwelligkeit ΔIpp über dem Netzwinkel</text>
<g class="grid"><line x1="90" y1="450" x2="870" y2="450"/><line x1="90" y1="376.4" x2="870" y2="376.4"/><line x1="90" y1="302.7" x2="870" y2="302.7"/><line x1="90" y1="229.1" x2="870" y2="229.1"/><line x1="90" y1="155.5" x2="870" y2="155.5"/><line x1="90" y1="81.8" x2="870" y2="81.8"/><line x1="90" y1="45" x2="90" y2="450"/><line x1="285" y1="45" x2="285" y2="450"/><line x1="480" y1="45" x2="480" y2="450"/><line x1="675" y1="45" x2="675" y2="450"/><line x1="870" y1="45" x2="870" y2="450"/></g>
<g font-size="13"><text x="78" y="455" text-anchor="end">0</text><text x="78" y="381" text-anchor="end">1</text><text x="78" y="308" text-anchor="end">2</text><text x="78" y="234" text-anchor="end">3</text><text x="78" y="161" text-anchor="end">4</text><text x="78" y="87" text-anchor="end">5</text><text x="90" y="475" text-anchor="middle">0°</text><text x="285" y="475" text-anchor="middle">90°</text><text x="480" y="475" text-anchor="middle">180°</text><text x="675" y="475" text-anchor="middle">270°</text><text x="870" y="475" text-anchor="middle">360°</text></g>
<line class="axis" x1="90" y1="450" x2="870" y2="450"/><line class="axis" x1="90" y1="45" x2="90" y2="450"/>
<polyline class="curve" points="90.0,74.3 100.8,76.5 111.7,82.9 122.5,93.4 133.3,107.6 144.2,125.2 155.0,145.5 165.8,168.1 176.7,192.0 187.5,216.8 198.3,241.5 209.2,265.5 220.0,288.0 230.8,308.4 241.7,325.9 252.5,340.2 263.3,350.7 274.2,357.1 285.0,359.3 295.8,357.1 306.7,350.7 317.5,340.2 328.3,325.9 339.2,308.4 350.0,288.0 360.8,265.5 371.7,241.5 382.5,216.8 393.3,192.0 404.2,168.1 415.0,145.5 425.8,125.2 436.7,107.6 447.5,93.4 458.3,82.9 469.2,76.5 480.0,74.3 490.8,76.5 501.7,82.9 512.5,93.4 523.3,107.6 534.2,125.2 545.0,145.5 555.8,168.1 566.7,192.0 577.5,216.8 588.3,241.5 599.2,265.5 610.0,288.0 620.8,308.4 631.7,325.9 642.5,340.2 653.3,350.7 664.2,357.1 675.0,359.3 685.8,357.1 696.7,350.7 707.5,340.2 718.3,325.9 729.2,308.4 740.0,288.0 750.8,265.5 761.7,241.5 772.5,216.8 783.3,192.0 794.2,168.1 805.0,145.5 815.8,125.2 826.7,107.6 837.5,93.4 848.3,82.9 859.2,76.5 870.0,74.3"/>
<g class="mark"><circle cx="90" cy="74.3" r="4"/><circle cx="285" cy="359.3" r="4"/><circle cx="480" cy="74.3" r="4"/><circle cx="675" cy="359.3" r="4"/><circle cx="870" cy="74.3" r="4"/></g>
<g font-size="12"><text x="105" y="65">5,10 A</text><text x="285" y="348" text-anchor="middle">1,23 A</text><text x="480" y="65" text-anchor="middle">5,10 A</text><text x="675" y="348" text-anchor="middle">1,23 A</text><text x="855" y="65" text-anchor="end">5,10 A</text></g>
<text x="450" y="505" text-anchor="middle" font-size="15">Netzwinkel φ</text><text x="22" y="260" text-anchor="middle" font-size="15" transform="rotate(-90 22 260)">ΔIpp [A]</text>
<text x="110" y="105" font-size="13">Udc = 750 V · fs = 70 kHz · L = 525 µH</text><text x="110" y="125" font-size="13">ΔIpp(φ) = Udc · d(φ) · [1 − d(φ)] / (L · fs)</text>
</svg>