<svg xmlns="http://www.w3.org/2000/svg" width="1600" height="1000" viewBox="0 0 1600 1000">
  <defs>
    <linearGradient id="bg" x1="0" y1="0" x2="1" y2="1"><stop stop-color="#07111c"/><stop offset="1" stop-color="#0b1825"/></linearGradient>
    <linearGradient id="panel" x1="0" y1="0" x2="1" y2="1"><stop stop-color="#122230"/><stop offset="1" stop-color="#0b1722"/></linearGradient>
    <style>
      .screen{fill:url(#bg);stroke:#243746;stroke-width:2}.panel{fill:url(#panel);stroke:#324758;stroke-width:1.5}.title{font:700 28px Arial;fill:#f5f7fa}.head{font:700 20px Arial;fill:#f5f7fa}.txt{font:16px Arial;fill:#d5dde5}.muted{font:15px Arial;fill:#aeb9c4}.blue{fill:#2f7cff}.green{fill:#68cf3d}.violet{fill:#9b5cff}.red{fill:#ff5a4f}.line{stroke:#314759;stroke-width:1}.btn{fill:#123f95;stroke:#2f7cff;stroke-width:1.5}.btn2{fill:#182633;stroke:#506679;stroke-width:1.5}.nav{fill:#0a1520;stroke:#243746;stroke-width:1}.small{font:14px Arial;fill:#d5dde5}
    </style>
  </defs>
  <rect width="1600" height="1000" fill="#02070c"/>

  <!-- Settings overview -->
  <g transform="translate(10 10)">
    <rect class="screen" rx="14" width="780" height="480"/>
    <text x="30" y="38" class="txt">‹ Zurück</text><text x="300" y="40" class="title">⚙ Einstellungen</text><text x="650" y="38" class="txt">WiFi  MQTT ●  15:24</text>
    <line x1="0" y1="58" x2="780" y2="58" class="line"/>
    <g transform="translate(28 82)"><rect class="panel" rx="12" width="220" height="270"/><text x="78" y="78" font-size="58" class="blue">🛠</text><text x="52" y="128" class="head">Debug Settings</text><text x="28" y="162" class="muted">Logs, Diagnose, Anzeige</text><text x="28" y="187" class="muted">und Entwickleroptionen</text><text x="28" y="212" class="muted">konfigurieren.</text><text x="195" y="248" class="title">›</text></g>
    <g transform="translate(280 82)"><rect class="panel" rx="12" width="220" height="270"/><text x="78" y="78" font-size="58" class="green">⌁</text><text x="90" y="128" class="head">WiFi</text><text x="38" y="162" class="muted">WLAN-Verbindung</text><text x="38" y="187" class="muted">konfigurieren, Status</text><text x="38" y="212" class="muted">und NTP-Zeit anzeigen.</text><text x="195" y="248" class="title">›</text></g>
    <g transform="translate(532 82)"><rect class="panel" rx="12" width="220" height="270"/><text x="72" y="78" font-size="48" class="violet">☁</text><text x="22" y="128" class="head">MQTT / Home Assistant</text><text x="30" y="162" class="muted">Broker, Discovery und</text><text x="30" y="187" class="muted">Fernsteuerung</text><text x="30" y="212" class="muted">konfigurieren.</text><text x="195" y="248" class="title">›</text></g>
    <rect x="28" y="370" width="724" height="55" rx="10" class="panel"/><text x="48" y="402" class="small">RAM 142 kB</text><text x="180" y="402" class="small">PSRAM 5.82 MB</text><text x="350" y="402" class="small">CPU 21 %</text><text x="460" y="402" class="small">FPS 57</text><text x="560" y="402" class="small">Uptime 2d 14:32</text>
    <rect x="0" y="440" width="780" height="40" class="nav"/><text x="40" y="466" class="small">Dashboard</text><text x="185" y="466" class="small">Diagramm</text><text x="320" y="466" class="small">CAN-Monitor</text><text x="480" y="466" class="small">Debug-Log</text><text x="650" y="466" class="blue">Einstellungen</text>
  </g>

  <!-- WiFi -->
  <g transform="translate(810 10)">
    <rect class="screen" rx="14" width="780" height="480"/>
    <text x="26" y="38" class="txt">‹ Zurück</text><text x="330" y="40" class="title">WiFi</text><text x="715" y="38" class="txt">15:24</text><line x1="0" y1="58" x2="780" y2="58" class="line"/>
    <rect x="18" y="72" width="320" height="330" rx="12" class="panel"/><text x="36" y="105" class="head">Status</text><text x="36" y="142" class="txt">WLAN:</text><text x="178" y="142" class="green">Aktiviert</text><text x="36" y="176" class="txt">SSID:</text><text x="178" y="176" class="txt">FRITZ!Box 7490</text><text x="36" y="210" class="txt">Signal:</text><text x="178" y="210" class="txt">-63 dBm (74%)</text><text x="36" y="244" class="txt">IP-Adresse:</text><text x="178" y="244" class="txt">192.168.178.54</text><text x="36" y="278" class="txt">NTP:</text><text x="178" y="278" class="green">Synchronisiert</text><text x="36" y="312" class="txt">Letzte Sync:</text><text x="178" y="312" class="txt">12.07.2026 15:20</text><rect x="36" y="340" width="284" height="44" rx="8" class="btn2"/><text x="120" y="368" class="red">WiFi trennen</text>
    <rect x="356" y="72" width="406" height="330" rx="12" class="panel"/><text x="376" y="105" class="head">WLAN-Konfiguration</text><text x="376" y="140" class="txt">Netzwerk wählen</text><rect x="376" y="152" width="346" height="42" rx="7" class="btn2"/><text x="392" y="179" class="txt">FRITZ!Box 7490</text><text x="376" y="224" class="txt">Passwort</text><rect x="376" y="236" width="346" height="42" rx="7" class="btn2"/><text x="392" y="263" class="txt">••••••••••••</text><text x="376" y="307" class="txt">IP-Einstellungen</text><rect x="376" y="318" width="346" height="42" rx="7" class="btn2"/><text x="392" y="345" class="txt">DHCP (automatisch)</text><rect x="376" y="370" width="346" height="44" rx="8" class="btn"/><text x="475" y="398" class="txt">Speichern &amp; verbinden</text>
    <rect x="18" y="420" width="320" height="44" rx="8" class="btn"/><text x="92" y="448" class="txt">Netzwerke suchen</text><rect x="356" y="420" width="406" height="44" rx="8" class="btn2"/><text x="490" y="448" class="txt">Access Point starten</text>
  </g>

  <!-- Debug -->
  <g transform="translate(10 510)">
    <rect class="screen" rx="14" width="780" height="480"/>
    <text x="26" y="38" class="txt">‹ Zurück</text><text x="280" y="40" class="title blue">Debug Settings</text><text x="715" y="38" class="txt">15:24</text><line x1="0" y1="58" x2="780" y2="58" class="line"/>
    <rect x="18" y="72" width="350" height="350" rx="12" class="panel"/><text x="36" y="105" class="head">Einstellungen</text><text x="36" y="145" class="txt">Log-Level</text><text x="270" y="145" class="txt">Info ▾</text><text x="36" y="185" class="txt">Serielles Debug</text><text x="308" y="185" class="green">●</text><text x="36" y="225" class="txt">Debug-Log auf Display</text><text x="308" y="225" class="green">●</text><text x="36" y="265" class="txt">FPS-Anzeige</text><text x="308" y="265" class="green">●</text><text x="36" y="305" class="txt">RAM/CPU-Anzeige</text><text x="308" y="305" class="green">●</text><text x="36" y="345" class="txt">CAN-Rohdaten loggen</text><text x="308" y="345" class="muted">●</text><rect x="36" y="370" width="314" height="42" rx="8" class="btn2"/><text x="150" y="397" class="red">Log löschen</text>
    <rect x="386" y="72" width="376" height="350" rx="12" class="panel"/><text x="406" y="105" class="head">Systemdiagnose</text><text x="406" y="145" class="txt">Freier RAM:</text><text x="590" y="145" class="txt">142 kB</text><text x="406" y="180" class="txt">Freier PSRAM:</text><text x="590" y="180" class="txt">5.82 MB</text><text x="406" y="215" class="txt">CPU 0 Last:</text><text x="590" y="215" class="txt">18 %</text><text x="406" y="250" class="txt">CPU 1 Last:</text><text x="590" y="250" class="txt">24 %</text><text x="406" y="285" class="txt">LVGL FPS:</text><text x="590" y="285" class="txt">57 fps</text><text x="406" y="320" class="txt">Loop-Zeit:</text><text x="590" y="320" class="txt">4.1 ms</text><text x="406" y="355" class="txt">Uptime:</text><text x="590" y="355" class="txt">2d 14:32:18</text><rect x="406" y="370" width="336" height="42" rx="8" class="btn2"/><text x="492" y="397" class="txt">Diagnose aktualisieren</text>
    <rect x="0" y="440" width="780" height="40" class="nav"/><text x="40" y="466" class="small">Dashboard</text><text x="185" y="466" class="small">Diagramm</text><text x="320" y="466" class="small">CAN-Monitor</text><text x="480" y="466" class="small">Debug-Log</text><text x="650" y="466" class="blue">Einstellungen</text>
  </g>

  <!-- MQTT -->
  <g transform="translate(810 510)">
    <rect class="screen" rx="14" width="780" height="480"/>
    <text x="26" y="38" class="txt">‹ Zurück</text><text x="240" y="40" class="title violet">MQTT / Home Assistant</text><text x="715" y="38" class="txt">15:24</text><line x1="0" y1="58" x2="780" y2="58" class="line"/>
    <rect x="18" y="72" width="322" height="350" rx="12" class="panel"/><text x="36" y="105" class="head">MQTT-Broker</text><text x="36" y="145" class="txt">MQTT:</text><text x="178" y="145" class="green">Aktiviert</text><text x="36" y="178" class="txt">Broker:</text><text x="178" y="178" class="txt">192.168.178.104</text><text x="36" y="211" class="txt">Port:</text><text x="178" y="211" class="txt">1883</text><text x="36" y="244" class="txt">Client-ID:</text><text x="178" y="244" class="txt">charger_hmi_01</text><text x="36" y="277" class="txt">Topic:</text><text x="178" y="277" class="txt">golfcart/charger</text><text x="36" y="310" class="txt">Status:</text><text x="178" y="310" class="green">● Verbunden</text><rect x="36" y="352" width="188" height="44" rx="8" class="btn2"/><text x="58" y="380" class="txt">Verbindung testen</text><rect x="236" y="352" width="84" height="44" rx="8" class="btn2"/><text x="256" y="380" class="red">Stopp</text>
    <rect x="358" y="72" width="404" height="350" rx="12" class="panel"/><text x="378" y="105" class="head">Home Assistant Integration</text><text x="378" y="150" class="txt">Discovery aktivieren</text><text x="720" y="150" class="green">●</text><text x="378" y="195" class="txt">Geräte-ID</text><rect x="510" y="168" width="232" height="38" rx="7" class="btn2"/><text x="525" y="193" class="small">golfcart_charger_hmi</text><text x="378" y="240" class="txt">Gerätename</text><rect x="510" y="213" width="232" height="38" rx="7" class="btn2"/><text x="525" y="238" class="small">Golfcart Charger HMI</text><text x="378" y="285" class="txt">Availability (LWT)</text><text x="720" y="285" class="green">●</text><text x="378" y="330" class="txt">Steuerbefehle erlauben</text><text x="720" y="330" class="muted">●</text><rect x="378" y="350" width="364" height="44" rx="8" class="btn"/><text x="530" y="378" class="txt">Speichern</text>
    <rect x="0" y="440" width="780" height="40" class="nav"/><text x="40" y="466" class="small">Dashboard</text><text x="185" y="466" class="small">Diagramm</text><text x="320" y="466" class="small">CAN-Monitor</text><text x="480" y="466" class="small">Debug-Log</text><text x="650" y="466" class="blue">Einstellungen</text>
  </g>
</svg>